<svg version="1.2" xmlns="http://www.w3.org/2000/svg" viewBox="0 0 200 40" width="2000" height="2000">
	<title>New Project</title>
	<style>
		.s0 { fill: #ffffff } 
		.s1 { fill: #ab7442 } 
	</style>
	<path id="STOLARIJA RODIĆ" class="s0" aria-label="STOLARIJA RODIĆ"  d="m9.4 27.3q-2 0-3.4-0.7-1.4-0.8-2.1-2.3-0.7-1.6-0.8-4l3.9-0.6q0.1 1.4 0.3 2.3 0.2 0.9 0.7 1.4 0.5 0.4 1.2 0.4 0.9 0 1.2-0.5 0.3-0.6 0.3-1.3 0-1.4-0.7-2.4-0.6-0.9-1.7-1.9l-2.4-2q-1.2-1.1-2-2.4-0.8-1.3-0.8-3.2 0-2.8 1.6-4.3 1.7-1.5 4.5-1.5 1.7 0 2.7 0.6 1.1 0.5 1.7 1.5 0.6 0.9 0.8 2 0.3 1.1 0.3 2.2l-3.9 0.5q0-1-0.2-1.8-0.1-0.7-0.5-1.2-0.3-0.4-1.1-0.4-0.8 0-1.1 0.6-0.4 0.6-0.4 1.3 0 1.2 0.5 1.9 0.5 0.8 1.5 1.6l2.2 2q1.5 1.2 2.5 2.8 1 1.6 1 3.8 0 1.6-0.7 2.9-0.8 1.3-2.1 2-1.2 0.7-3 0.7zm14.9-0.3h-4.6v-19h-3.5v-3.4h11.5v3.4h-3.4zm11.5 0.3q-2.5 0-3.9-0.9-1.5-0.9-2.1-2.5-0.6-1.6-0.6-3.9v-8.4q0-2.3 0.6-3.9 0.6-1.6 2.1-2.5 1.4-0.9 3.9-0.9 2.5 0 3.9 0.9 1.5 0.9 2.1 2.5 0.6 1.6 0.6 3.9v8.4q0 2.3-0.6 3.9-0.6 1.6-2.1 2.5-1.4 0.9-3.9 0.9zm0-3.3q0.9 0 1.3-0.4 0.4-0.4 0.5-1 0.2-0.7 0.2-1.5v-10.6q0-0.8-0.2-1.4-0.1-0.7-0.5-1.1-0.4-0.4-1.3-0.4-0.9 0-1.3 0.4-0.4 0.4-0.5 1.1-0.2 0.6-0.2 1.4v10.6q0 0.8 0.1 1.5 0.2 0.6 0.6 1 0.4 0.4 1.3 0.4zm19.5 3h-9.9v-22.4h4.6v19.3h5.3zm5.3 0h-4.3l4.3-22.4h5.1l4.3 22.4h-4.2l-0.8-4.9h-3.6zm2.6-16.8l-1.3 9.1h2.7zm13.7 16.7h-4.6v-22.4h5.8q2.3 0 3.9 0.6 1.6 0.5 2.5 1.8 0.8 1.3 0.8 3.6 0 1.3-0.2 2.4-0.2 1.1-0.8 1.9-0.6 0.7-1.7 1.2l3.1 10.9h-4.7l-2.5-10.1h-1.6zm0-19.3v6.4h1.3q1.1 0 1.7-0.3 0.7-0.4 0.9-1.1 0.3-0.7 0.3-1.8 0-1.6-0.6-2.4-0.6-0.8-2.1-0.8zm16.1 19.3h-4.5v-22.4h4.5zm4.3 0.6h-2.2v-3.2q0.8 0 1.4-0.1 0.5-0.1 0.8-0.4 0.3-0.2 0.5-0.7 0.1-0.5 0.1-1.3v-17.3h4.6v17.5q0 1.8-0.5 3-0.4 1.3-1.5 1.9-1.2 0.6-3.2 0.6zm11.7-0.6h-4.3l4.4-22.4h5l4.3 22.4h-4.2l-0.8-4.9h-3.5zm2.6-16.8l-1.4 9.1h2.7zm20.6 16.7h-4.6v-22.4h5.8q2.3 0 3.9 0.6 1.6 0.5 2.5 1.8 0.9 1.3 0.9 3.5 0 1.4-0.3 2.5-0.2 1.1-0.8 1.9-0.6 0.7-1.7 1.2l3.1 10.9h-4.6l-2.6-10.1h-1.6zm0-19.3v6.4h1.3q1.1 0 1.8-0.3 0.6-0.4 0.8-1.1 0.3-0.8 0.3-1.8 0-1.6-0.6-2.4-0.5-0.8-2.1-0.8zm17.7 19.6q-2.5 0-3.9-0.9-1.5-0.9-2.1-2.5-0.6-1.7-0.6-4v-8.3q0-2.3 0.6-3.9 0.6-1.7 2.1-2.5 1.4-0.9 3.9-0.9 2.5 0 3.9 0.9 1.5 0.9 2.1 2.5 0.6 1.6 0.6 3.9v8.3q0 2.3-0.6 4-0.6 1.6-2.1 2.5-1.4 0.9-3.9 0.9zm0-3.3q0.9 0 1.3-0.4 0.4-0.4 0.5-1.1 0.2-0.7 0.2-1.4v-10.6q0-0.8-0.2-1.5-0.1-0.6-0.5-1-0.4-0.4-1.3-0.4-0.9 0-1.3 0.4-0.4 0.4-0.5 1-0.2 0.7-0.2 1.5v10.6q0 0.7 0.2 1.4 0.1 0.7 0.5 1.1 0.4 0.4 1.3 0.4zm15.2 3h-5.5v-22.4h5.4q2.9 0 4.4 0.7 1.6 0.8 2.3 2.3 0.7 1.6 0.7 4v8.2q0 2.4-0.7 4.1-0.7 1.6-2.2 2.3-1.6 0.8-4.4 0.8zm-1-19.2v16h1q1.3 0 1.8-0.4 0.5-0.4 0.7-1.2 0.1-0.8 0.1-1.9v-9.3q0-1.1-0.2-1.8-0.2-0.7-0.7-1.1-0.5-0.3-1.7-0.3zm15.8 19.2h-4.5v-22.4h4.5zm9.7 0.3q-2.5 0-4-0.9-1.4-1-2-2.6-0.6-1.7-0.6-3.9v-8.1q0-2.3 0.6-4 0.6-1.7 2-2.6 1.5-0.9 4-0.9 2.4 0 3.7 0.8 1.4 0.8 2 2.3 0.5 1.5 0.5 3.4v1.9h-4.4v-2.1q0-0.8-0.1-1.5-0.1-0.7-0.4-1.1-0.4-0.4-1.3-0.4-0.9 0-1.3 0.4-0.5 0.5-0.6 1.2-0.1 0.7-0.1 1.5v10.2q0 0.9 0.2 1.7 0.1 0.7 0.5 1 0.5 0.4 1.3 0.4 0.9 0 1.2-0.4 0.4-0.5 0.5-1.2 0.1-0.7 0.1-1.5v-2.2h4.4v1.9q0 1.9-0.5 3.5-0.6 1.4-1.9 2.3-1.4 0.9-3.8 0.9zm1.1-24.4h-2.5l1.7-5.5h4.2z"/>
	<path id="Shape 1" class="s0" d="m4.6 39.1v-2.7h69.4v2.7z"/>
	<path id="Shape 1 copy" class="s0" d="m124.2 38.6v-2.7h71.2v2.7z"/>
	<path id="since 2000" class="s1" aria-label="since 2000"  d="m80.2 32c-1.4 0-2 0.9-2 2.3-0.1 2.5 2.9 2.7 2.9 4.7 0 0.8-0.3 1.3-1 1.2-0.8 0-1.1-0.4-1.1-1.2v-0.6h-0.9v0.5c0 1.4 0.6 2.2 2 2.3 1.3 0 2-0.9 2-2.3 0-2.5-3-2.7-2.9-4.7 0-0.8 0.3-1.3 1-1.2 0.7 0 1 0.4 1 1.2v0.3h0.9v-0.2c0.1-1.4-0.6-2.2-1.9-2.3zm2.8 0.2v8.9h0.9l0.1-8.9zm2.9 1.7l2.2 7.3h1.1v-9h-0.8l-0.1 6.5-2-6.5h-1.3l-0.1 8.9h0.9zm6.3-1.7c-1.3 0-2 0.9-2 2.2v4.6c-0.1 1.4 0.6 2.3 1.9 2.3 1.4 0 2.1-0.9 2.1-2.2v-1.1h-1v1.1c0 0.8-0.3 1.3-1 1.3-0.7 0-1.1-0.5-1.1-1.3l0.1-4.7c0-0.8 0.3-1.3 1-1.3 0.8 0 1.1 0.5 1.1 1.3v0.9h0.9v-0.8c0-1.4-0.6-2.3-2-2.3zm3.9 4.1v-3.1l2.7 0.1v-1h-3.7v8.9l3.6 0.1v-0.9l-2.6-0.1v-3.1h2.2v-0.9zm7.6-4c-1.4 0-2 0.9-2 2.3v0.7h0.9v-0.8c0-0.8 0.3-1.3 1.1-1.3 0.7 0 1 0.5 1 1.4 0 2.5-3.1 3.1-3.1 6v0.7l3.9 0.1v-0.9l-2.9-0.1v-0.1c0-2.1 3.1-3 3.1-5.7 0-1.4-0.6-2.3-2-2.3zm2.8 6.9c0 1.4 0.6 2.3 2 2.3 1.4 0 2.1-0.9 2.1-2.3v-4.6c0-1.3-0.6-2.2-2-2.2-1.4 0-2.1 0.8-2.1 2.2zm1.1-4.6c0-0.9 0.3-1.3 1-1.3 0.8 0 1.1 0.5 1.1 1.3l-0.1 4.7c0 0.8-0.3 1.3-1 1.3-0.8 0-1.1-0.5-1.1-1.3zm3.9 4.7c0 1.3 0.7 2.2 2.1 2.2 1.3 0.1 2-0.8 2-2.2l0.1-4.6c0-1.4-0.7-2.2-2-2.3-1.4 0-2.1 0.9-2.1 2.3zm1-4.7c0-0.8 0.4-1.3 1.1-1.3 0.7 0 1 0.5 1 1.3v4.8c0 0.8-0.4 1.2-1.1 1.2-0.7 0-1-0.5-1-1.3zm3.9 4.7c0 1.4 0.7 2.3 2 2.3 1.4 0 2.1-0.9 2.1-2.2l0.1-4.6c0-1.4-0.7-2.3-2.1-2.3-1.3 0-2 0.9-2 2.2zm1-4.6c0-0.8 0.3-1.3 1.1-1.3 0.7 0 1 0.5 1 1.3v4.7c-0.1 0.8-0.4 1.3-1.1 1.3-0.7 0-1.1-0.5-1.1-1.3z"/>
</svg>