<svg id="visual" viewBox="0 0 4000 3500" width="4000" height="3500" xmlns="http://www.w3.org/2000/svg" xmlns:xlink="http://www.w3.org/1999/xlink" version="1.1"><path d="M0 1037L95.2 1031C190.3 1025 380.7 1013 571.2 998.8C761.7 984.7 952.3 968.3 1142.8 993.5C1333.3 1018.7 1523.7 1085.3 1714.2 1149.2C1904.7 1213 2095.3 1274 2285.8 1279.5C2476.3 1285 2666.7 1235 2857.2 1185C3047.7 1135 3238.3 1085 3428.8 1126.2C3619.3 1167.3 3809.7 1299.7 3904.8 1365.8L4000 1432L4000 0L3904.8 0C3809.7 0 3619.3 0 3428.8 0C3238.3 0 3047.7 0 2857.2 0C2666.7 0 2476.3 0 2285.8 0C2095.3 0 1904.7 0 1714.2 0C1523.7 0 1333.3 0 1142.8 0C952.3 0 761.7 0 571.2 0C380.7 0 190.3 0 95.2 0L0 0Z" fill="#e99651"></path><path d="M0 960L95.2 949.8C190.3 939.7 380.7 919.3 571.2 957C761.7 994.7 952.3 1090.3 1142.8 1072C1333.3 1053.7 1523.7 921.3 1714.2 863.8C1904.7 806.3 2095.3 823.7 2285.8 858.3C2476.3 893 2666.7 945 2857.2 933.3C3047.7 921.7 3238.3 846.3 3428.8 804.8C3619.3 763.3 3809.7 755.7 3904.8 751.8L4000 748L4000 0L3904.8 0C3809.7 0 3619.3 0 3428.8 0C3238.3 0 3047.7 0 2857.2 0C2666.7 0 2476.3 0 2285.8 0C2095.3 0 1904.7 0 1714.2 0C1523.7 0 1333.3 0 1142.8 0C952.3 0 761.7 0 571.2 0C380.7 0 190.3 0 95.2 0L0 0Z" fill="#eeb073"></path><path d="M0 587L95.2 609.5C190.3 632 380.7 677 571.2 700.7C761.7 724.3 952.3 726.7 1142.8 698.2C1333.3 669.7 1523.7 610.3 1714.2 628.2C1904.7 646 2095.3 741 2285.8 763.5C2476.3 786 2666.7 736 2857.2 682C3047.7 628 3238.3 570 3428.8 563.2C3619.3 556.3 3809.7 600.7 3904.8 622.8L4000 645L4000 0L3904.8 0C3809.7 0 3619.3 0 3428.8 0C3238.3 0 3047.7 0 2857.2 0C2666.7 0 2476.3 0 2285.8 0C2095.3 0 1904.7 0 1714.2 0C1523.7 0 1333.3 0 1142.8 0C952.3 0 761.7 0 571.2 0C380.7 0 190.3 0 95.2 0L0 0Z" fill="#f3c898"></path><path d="M0 372L95.2 392.3C190.3 412.7 380.7 453.3 571.2 454.7C761.7 456 952.3 418 1142.8 409.8C1333.3 401.7 1523.7 423.3 1714.2 462.5C1904.7 501.7 2095.3 558.3 2285.8 541C2476.3 523.7 2666.7 432.3 2857.2 408.3C3047.7 384.3 3238.3 427.7 3428.8 453.2C3619.3 478.7 3809.7 486.3 3904.8 490.2L4000 494L4000 0L3904.8 0C3809.7 0 3619.3 0 3428.8 0C3238.3 0 3047.7 0 2857.2 0C2666.7 0 2476.3 0 2285.8 0C2095.3 0 1904.7 0 1714.2 0C1523.7 0 1333.3 0 1142.8 0C952.3 0 761.7 0 571.2 0C380.7 0 190.3 0 95.2 0L0 0Z" fill="#f8dfbf"></path><path d="M0 340L95.2 322C190.3 304 380.7 268 571.2 253C761.7 238 952.3 244 1142.8 232.3C1333.3 220.7 1523.7 191.3 1714.2 212.5C1904.7 233.7 2095.3 305.3 2285.8 332C2476.3 358.7 2666.7 340.3 2857.2 310.2C3047.7 280 3238.3 238 3428.8 240.2C3619.3 242.3 3809.7 288.7 3904.8 311.8L4000 335L4000 0L3904.8 0C3809.7 0 3619.3 0 3428.8 0C3238.3 0 3047.7 0 2857.2 0C2666.7 0 2476.3 0 2285.8 0C2095.3 0 1904.7 0 1714.2 0C1523.7 0 1333.3 0 1142.8 0C952.3 0 761.7 0 571.2 0C380.7 0 190.3 0 95.2 0L0 0Z" fill="#fff6e8"></path></svg>