<svg id="visual" viewBox="0 0 960 540" width="1440" height="240" xmlns="http://www.w3.org/2000/svg" xmlns:xlink="http://www.w3.org/1999/xlink" version="1.1"><path d="M0 36L24 36.8C48 37.7 96 39.3 144 39C192 38.7 240 36.3 288 36.3C336 36.3 384 38.7 432 39.7C480 40.7 528 40.3 576 39.8C624 39.3 672 38.7 720 37C768 35.3 816 32.7 864 32.7C912 32.7 960 35.3 1008 36.7C1056 38 1104 38 1152 38C1200 38 1248 38 1296 37.3C1344 36.7 1392 35.3 1416 34.7L1440 34L1440 0L1416 0C1392 0 1344 0 1296 0C1248 0 1200 0 1152 0C1104 0 1056 0 1008 0C960 0 912 0 864 0C816 0 768 0 720 0C672 0 624 0 576 0C528 0 480 0 432 0C384 0 336 0 288 0C240 0 192 0 144 0C96 0 48 0 24 0L0 0Z" fill="#e99651"></path><path d="M0 27L24 27.7C48 28.3 96 29.7 144 30.5C192 31.3 240 31.7 288 32.2C336 32.7 384 33.3 432 31.8C480 30.3 528 26.7 576 26.5C624 26.3 672 29.7 720 31.2C768 32.7 816 32.3 864 30.7C912 29 960 26 1008 25.3C1056 24.7 1104 26.3 1152 26.5C1200 26.7 1248 25.3 1296 25.8C1344 26.3 1392 28.7 1416 29.8L1440 31L1440 0L1416 0C1392 0 1344 0 1296 0C1248 0 1200 0 1152 0C1104 0 1056 0 1008 0C960 0 912 0 864 0C816 0 768 0 720 0C672 0 624 0 576 0C528 0 480 0 432 0C384 0 336 0 288 0C240 0 192 0 144 0C96 0 48 0 24 0L0 0Z" fill="#eeb073"></path><path d="M0 17L24 17.3C48 17.7 96 18.3 144 19.8C192 21.3 240 23.7 288 24.2C336 24.7 384 23.3 432 21.7C480 20 528 18 576 17.2C624 16.3 672 16.7 720 18C768 19.3 816 21.7 864 23.3C912 25 960 26 1008 26.5C1056 27 1104 27 1152 25.8C1200 24.7 1248 22.3 1296 21.5C1344 20.7 1392 21.3 1416 21.7L1440 22L1440 0L1416 0C1392 0 1344 0 1296 0C1248 0 1200 0 1152 0C1104 0 1056 0 1008 0C960 0 912 0 864 0C816 0 768 0 720 0C672 0 624 0 576 0C528 0 480 0 432 0C384 0 336 0 288 0C240 0 192 0 144 0C96 0 48 0 24 0L0 0Z" fill="#f3c898"></path><path d="M0 12L24 13C48 14 96 16 144 16.7C192 17.3 240 16.7 288 15.5C336 14.3 384 12.7 432 13.2C480 13.7 528 16.3 576 17.2C624 18 672 17 720 16.2C768 15.3 816 14.7 864 14.7C912 14.7 960 15.3 1008 15.3C1056 15.3 1104 14.7 1152 13.7C1200 12.7 1248 11.3 1296 10.7C1344 10 1392 10 1416 10L1440 10L1440 0L1416 0C1392 0 1344 0 1296 0C1248 0 1200 0 1152 0C1104 0 1056 0 1008 0C960 0 912 0 864 0C816 0 768 0 720 0C672 0 624 0 576 0C528 0 480 0 432 0C384 0 336 0 288 0C240 0 192 0 144 0C96 0 48 0 24 0L0 0Z" fill="#f8dfbf"></path><path d="M0 8L24 7.2C48 6.3 96 4.7 144 4.3C192 4 240 5 288 4.8C336 4.7 384 3.3 432 3C480 2.7 528 3.3 576 4.5C624 5.7 672 7.3 720 8C768 8.7 816 8.3 864 8C912 7.7 960 7.3 1008 7.8C1056 8.3 1104 9.7 1152 10C1200 10.3 1248 9.7 1296 8.3C1344 7 1392 5 1416 4L1440 3L1440 0L1416 0C1392 0 1344 0 1296 0C1248 0 1200 0 1152 0C1104 0 1056 0 1008 0C960 0 912 0 864 0C816 0 768 0 720 0C672 0 624 0 576 0C528 0 480 0 432 0C384 0 336 0 288 0C240 0 192 0 144 0C96 0 48 0 24 0L0 0Z" fill="#fff6e8"></path></svg>