<svg id="visual" viewBox="0 0 100% 1000" width="100%" height="1000" xmlns="http://www.w3.org/2000/svg" xmlns:xlink="http://www.w3.org/1999/xlink" version="1.1"><path d="M0 296L47.7 294.2C95.3 292.3 190.7 288.7 285.8 284.5C381 280.3 476 275.7 571.2 283C666.3 290.3 761.7 309.7 857 328C952.3 346.3 1047.7 363.7 1143 365.2C1238.3 366.7 1333.7 352.3 1428.8 338C1524 323.7 1619 309.3 1714.2 321C1809.3 332.7 1904.7 370.3 1952.3 389.2L2000 408L2000 0L1952.3 0C1904.7 0 1809.3 0 1714.2 0C1619 0 1524 0 1428.8 0C1333.7 0 1238.3 0 1143 0C1047.7 0 952.3 0 857 0C761.7 0 666.3 0 571.2 0C476 0 381 0 285.8 0C190.7 0 95.3 0 47.7 0L0 0Z" fill="#e99651"></path><path d="M0 274L47.7 271C95.3 268 190.7 262 285.8 272.7C381 283.3 476 310.7 571.2 305.5C666.3 300.3 761.7 262.7 857 246.3C952.3 230 1047.7 235 1143 244.8C1238.3 254.7 1333.7 269.3 1428.8 266C1524 262.7 1619 241.3 1714.2 229.5C1809.3 217.7 1904.7 215.3 1952.3 214.2L2000 213L2000 0L1952.3 0C1904.7 0 1809.3 0 1714.2 0C1619 0 1524 0 1428.8 0C1333.7 0 1238.3 0 1143 0C1047.7 0 952.3 0 857 0C761.7 0 666.3 0 571.2 0C476 0 381 0 285.8 0C190.7 0 95.3 0 47.7 0L0 0Z" fill="#eeb073"></path><path d="M0 167L47.7 173.5C95.3 180 190.7 193 285.8 199.8C381 206.7 476 207.3 571.2 199.2C666.3 191 761.7 174 857 179C952.3 184 1047.7 211 1143 217.3C1238.3 223.7 1333.7 209.3 1428.8 194C1524 178.7 1619 162.3 1714.2 160.5C1809.3 158.7 1904.7 171.3 1952.3 177.7L2000 184L2000 0L1952.3 0C1904.7 0 1809.3 0 1714.2 0C1619 0 1524 0 1428.8 0C1333.7 0 1238.3 0 1143 0C1047.7 0 952.3 0 857 0C761.7 0 666.3 0 571.2 0C476 0 381 0 285.8 0C190.7 0 95.3 0 47.7 0L0 0Z" fill="#f3c898"></path><path d="M0 106L47.7 111.8C95.3 117.7 190.7 129.3 285.8 129.7C381 130 476 119 571.2 116.5C666.3 114 761.7 120 857 131.2C952.3 142.3 1047.7 158.7 1143 153.8C1238.3 149 1333.7 123 1428.8 116.2C1524 109.3 1619 121.7 1714.2 128.8C1809.3 136 1904.7 138 1952.3 139L2000 140L2000 0L1952.3 0C1904.7 0 1809.3 0 1714.2 0C1619 0 1524 0 1428.8 0C1333.7 0 1238.3 0 1143 0C1047.7 0 952.3 0 857 0C761.7 0 666.3 0 571.2 0C476 0 381 0 285.8 0C190.7 0 95.3 0 47.7 0L0 0Z" fill="#f8dfbf"></path><path d="M0 96L47.7 91C95.3 86 190.7 76 285.8 71.8C381 67.7 476 69.3 571.2 66C666.3 62.7 761.7 54.3 857 60.3C952.3 66.3 1047.7 86.7 1143 94.2C1238.3 101.7 1333.7 96.3 1428.8 87.7C1524 79 1619 67 1714.2 67.7C1809.3 68.3 1904.7 81.7 1952.3 88.3L2000 95L2000 0L1952.3 0C1904.7 0 1809.3 0 1714.2 0C1619 0 1524 0 1428.8 0C1333.7 0 1238.3 0 1143 0C1047.7 0 952.3 0 857 0C761.7 0 666.3 0 571.2 0C476 0 381 0 285.8 0C190.7 0 95.3 0 47.7 0L0 0Z" fill="#fff6e8"></path></svg>