<svg id="visual" viewBox="0 0 4000 450" width="4000" height="450" xmlns="http://www.w3.org/2000/svg" xmlns:xlink="http://www.w3.org/1999/xlink" version="1.1"><path d="M0 132L95.2 131.3C190.3 130.7 380.7 129.3 571.2 127.7C761.7 126 952.3 124 1142.8 127.2C1333.3 130.3 1523.7 138.7 1714.2 146.8C1904.7 155 2095.3 163 2285.8 163.8C2476.3 164.7 2666.7 158.3 2857.2 151.8C3047.7 145.3 3238.3 138.7 3428.8 143.8C3619.3 149 3809.7 166 3904.8 174.5L4000 183L4000 0L3904.8 0C3809.7 0 3619.3 0 3428.8 0C3238.3 0 3047.7 0 2857.2 0C2666.7 0 2476.3 0 2285.8 0C2095.3 0 1904.7 0 1714.2 0C1523.7 0 1333.3 0 1142.8 0C952.3 0 761.7 0 571.2 0C380.7 0 190.3 0 95.2 0L0 0Z" fill="#e99651"></path><path d="M0 123L95.2 121.7C190.3 120.3 380.7 117.7 571.2 122.5C761.7 127.3 952.3 139.7 1142.8 137.3C1333.3 135 1523.7 118 1714.2 110.5C1904.7 103 2095.3 105 2285.8 109.3C2476.3 113.7 2666.7 120.3 2857.2 118.8C3047.7 117.3 3238.3 107.7 3428.8 102.3C3619.3 97 3809.7 96 3904.8 95.5L4000 95L4000 0L3904.8 0C3809.7 0 3619.3 0 3428.8 0C3238.3 0 3047.7 0 2857.2 0C2666.7 0 2476.3 0 2285.8 0C2095.3 0 1904.7 0 1714.2 0C1523.7 0 1333.3 0 1142.8 0C952.3 0 761.7 0 571.2 0C380.7 0 190.3 0 95.2 0L0 0Z" fill="#eeb073"></path><path d="M0 75L95.2 77.8C190.3 80.7 380.7 86.3 571.2 89.3C761.7 92.3 952.3 92.7 1142.8 89C1333.3 85.3 1523.7 77.7 1714.2 80C1904.7 82.3 2095.3 94.7 2285.8 97.5C2476.3 100.3 2666.7 93.7 2857.2 86.7C3047.7 79.7 3238.3 72.3 3428.8 71.5C3619.3 70.7 3809.7 76.3 3904.8 79.2L4000 82L4000 0L3904.8 0C3809.7 0 3619.3 0 3428.8 0C3238.3 0 3047.7 0 2857.2 0C2666.7 0 2476.3 0 2285.8 0C2095.3 0 1904.7 0 1714.2 0C1523.7 0 1333.3 0 1142.8 0C952.3 0 761.7 0 571.2 0C380.7 0 190.3 0 95.2 0L0 0Z" fill="#f3c898"></path><path d="M0 47L95.2 49.7C190.3 52.3 380.7 57.7 571.2 57.8C761.7 58 952.3 53 1142.8 51.8C1333.3 50.7 1523.7 53.3 1714.2 58.3C1904.7 63.3 2095.3 70.7 2285.8 68.5C2476.3 66.3 2666.7 54.7 2857.2 51.7C3047.7 48.7 3238.3 54.3 3428.8 57.7C3619.3 61 3809.7 62 3904.8 62.5L4000 63L4000 0L3904.8 0C3809.7 0 3619.3 0 3428.8 0C3238.3 0 3047.7 0 2857.2 0C2666.7 0 2476.3 0 2285.8 0C2095.3 0 1904.7 0 1714.2 0C1523.7 0 1333.3 0 1142.8 0C952.3 0 761.7 0 571.2 0C380.7 0 190.3 0 95.2 0L0 0Z" fill="#f8dfbf"></path><path d="M0 43L95.2 40.7C190.3 38.3 380.7 33.7 571.2 31.7C761.7 29.7 952.3 30.3 1142.8 28.8C1333.3 27.3 1523.7 23.7 1714.2 26.5C1904.7 29.3 2095.3 38.7 2285.8 42.2C2476.3 45.7 2666.7 43.3 2857.2 39.3C3047.7 35.3 3238.3 29.7 3428.8 29.8C3619.3 30 3809.7 36 3904.8 39L4000 42L4000 0L3904.8 0C3809.7 0 3619.3 0 3428.8 0C3238.3 0 3047.7 0 2857.2 0C2666.7 0 2476.3 0 2285.8 0C2095.3 0 1904.7 0 1714.2 0C1523.7 0 1333.3 0 1142.8 0C952.3 0 761.7 0 571.2 0C380.7 0 190.3 0 95.2 0L0 0Z" fill="#fff6e8"></path></svg>