<svg id="visual" viewBox="0 0 900 600" width="900" height="600" xmlns="http://www.w3.org/2000/svg" xmlns:xlink="http://www.w3.org/1999/xlink" version="1.1"><path d="M0 193L30 196.7C60 200.3 120 207.7 180 216.7C240 225.7 300 236.3 360 225.8C420 215.3 480 183.7 540 181.2C600 178.7 660 205.3 720 215.7C780 226 840 220 870 217L900 214L900 0L870 0C840 0 780 0 720 0C660 0 600 0 540 0C480 0 420 0 360 0C300 0 240 0 180 0C120 0 60 0 30 0L0 0Z" fill="#e99651"></path><path d="M0 196L30 192.8C60 189.7 120 183.3 180 176C240 168.7 300 160.3 360 153.5C420 146.7 480 141.3 540 136.5C600 131.7 660 127.3 720 127.8C780 128.3 840 133.7 870 136.3L900 139L900 0L870 0C840 0 780 0 720 0C660 0 600 0 540 0C480 0 420 0 360 0C300 0 240 0 180 0C120 0 60 0 30 0L0 0Z" fill="#eeb073"></path><path d="M0 101L30 104.8C60 108.7 120 116.3 180 118.8C240 121.3 300 118.7 360 119.8C420 121 480 126 540 127.2C600 128.3 660 125.7 720 120.3C780 115 840 107 870 103L900 99L900 0L870 0C840 0 780 0 720 0C660 0 600 0 540 0C480 0 420 0 360 0C300 0 240 0 180 0C120 0 60 0 30 0L0 0Z" fill="#f3c898"></path><path d="M0 92L30 86.3C60 80.7 120 69.3 180 72.7C240 76 300 94 360 94.7C420 95.3 480 78.7 540 69.8C600 61 660 60 720 59C780 58 840 57 870 56.5L900 56L900 0L870 0C840 0 780 0 720 0C660 0 600 0 540 0C480 0 420 0 360 0C300 0 240 0 180 0C120 0 60 0 30 0L0 0Z" fill="#f8dfbf"></path><path d="M0 48L30 50C60 52 120 56 180 55.2C240 54.3 300 48.7 360 49C420 49.3 480 55.7 540 56C600 56.3 660 50.7 720 50.2C780 49.7 840 54.3 870 56.7L900 59L900 0L870 0C840 0 780 0 720 0C660 0 600 0 540 0C480 0 420 0 360 0C300 0 240 0 180 0C120 0 60 0 30 0L0 0Z" fill="#fff6e8"></path></svg>